<?xml version="1.0" encoding="utf-8"?>
<!-- Generator: Adobe Illustrator 19.0.0, SVG Export Plug-In . SVG Version: 6.00 Build 0)  -->
<svg version="1.1" id="Layer_1" xmlns="http://www.w3.org/2000/svg" xmlns:xlink="http://www.w3.org/1999/xlink" x="0px" y="0px"
	 viewBox="0 0 431.5166931 431.6564636" style="enable-background:new 0 0 431.5166931 431.6564636;" xml:space="preserve">
<style type="text/css">
	.st0{fill:#5B5B5B;}
	.st1{display:none;fill:#5B5B5B;}
</style>
<g id="KliZqC.tif">
	<g id="XMLID_1_">
		<path id="XMLID_71_" class="st0" d="M351.5509033,179.7083588c0,16.5116119,0.0020447,32.8181763-0.0003967,49.1247559
			c-0.0045166,29.831192-0.0362549,59.6624298-0.0100098,89.493576
			c0.0214539,24.4010315,11.7357178,40.7562866,34.5994568,48.4423828
			c8.4169617,2.8294983,13.2716675,9.3927612,13.3671875,18.4126587c0.1005554,9.4982605,0.0446167,18.9985046,0.0202637,28.4977722
			c-0.0299072,11.6738892-6.2543335,17.9463196-17.8901978,17.9526062
			c-45.1634216,0.024292-90.3268738,0.0243835-135.4902802,0.024353
			c-65.1619873-0.000061-130.3239899-0.0119324-195.4859772-0.0095215
			c-12.5720367,0.0004883-18.6620865-6.0489502-18.6920166-18.6820068
			c-0.0233002-9.8325806-0.0855484-19.6661072,0.0226135-29.4975281
			c0.0926285-8.4190369,4.5939865-14.2169495,12.5426407-16.5440979
			c22.2865601-6.5248108,35.2898407-23.4567261,35.3660583-46.7897339
			c0.1469727-44.9963074,0.0561981-89.993454,0.0639343-134.9902191c0.0003128-1.7968445,0.0000458-3.5936737,0.0000458-4.7226562
			c10.1594467-1.9340668,19.9850082-2.9396515,29.2686691-5.7410736
			c23.7442169-7.1650391,42.0224457-21.8750305,55.1377411-42.8807678c1.7171936-2.7502747,3.4422607-3.8361282,6.7068939-3.8213577
			c29.8306122,0.1348038,59.662323,0.0393143,89.4925995,0.2075729c1.9297791,0.0108948,4.6929932,1.1061249,5.6509094,2.603714
			c19.4520264,30.4098206,46.9490051,46.8310394,83.1331482,48.4439697
			C349.8359985,179.2542572,350.31073,179.4338684,351.5509033,179.7083588z M143.9481201,263.8968201
			c0.0055389,0,0.0110931,0,0.0166321,0c0-0.1665344,0.0000153-0.3330383,0-0.4995728
			c-0.0022125-23.4803619,0.0186768-46.9607697-0.0219727-70.4410706
			c-0.0109253-6.3144531-4.0445404-10.0951996-9.6054535-9.2142944c-4.3894196,0.695343-6.7645111,3.9236603-6.7732086,9.5621796
			c-0.0382996,24.812561-0.0266418,49.6252136-0.0285645,74.4378204
			c-0.0017242,22.3146667-0.0200043,44.6293335,0.0184326,66.9439392c0.0107574,6.245636,4.1714325,10.1703491,9.598877,9.2467346
			c4.3326874-0.7372742,6.7722015-4.0610657,6.7804413-9.5943909
			C143.9682465,310.8577576,143.9481201,287.3772888,143.9481201,263.8968201z M223.9593048,263.8179321
			c0-3.4970703,0.000061-6.9941101,0-10.4911957c-0.0002747-20.1499023,0.0243835-40.2998352-0.0166016-60.449646
			c-0.0117493-5.7813873-3.1549835-9.2089691-8.1884155-9.2015839c-5.0494843,0.0074005-8.0440369,3.3672333-8.1991882,9.2081299
			c-0.0220947,0.8321838-0.0191345,1.6651764-0.0190582,2.4977875c0.0031433,31.3071899,0.0087738,62.6143646,0.0106964,93.9215546
			c0.0009308,15.1539917-0.0339355,30.3081055,0.0074768,45.4619751c0.0156097,5.7107544,3.2338562,9.2539673,8.1829681,9.2485046
			c4.953537-0.0054626,8.0530243-3.4901123,8.2020721-9.2549744c0.0429993-1.6643066,0.0242004-3.3303833,0.0243225-4.995636
			C223.9648285,307.7812195,223.9644318,285.7995605,223.9593048,263.8179321z M303.9592285,263.837738
			c0-3.4971924,0.0000305-6.9944153,0-10.4916229c-0.0002747-20.1506958,0.0286865-40.3014221-0.0177612-60.4520111
			c-0.0148926-6.4549255-4.538269-10.519577-10.1449585-9.0369568c-4.7528687,1.2568512-6.2937317,4.778656-6.2838745,9.4965057
			c0.0661621,31.6413879,0.0270081,63.2829742,0.0240784,94.9244843
			c-0.0014343,15.4876709-0.0354004,30.9754639,0.0196533,46.4629517c0.024292,6.8428345,5.3581543,11.0333252,11.079071,8.7557983
			c4.1272888-1.6430664,5.3594971-4.9770203,5.3468018-9.2152405
			C303.9118958,310.8005371,303.9485474,287.3190613,303.9592285,263.837738z"/>
		<path id="XMLID_67_" class="st0" d="M216.0111389,0.0819794c45.4839783,0,90.9693298-0.2210846,136.4515381,0.0628777
			c44.4837036,0.2777252,79.9012756,37.0677109,79.0385742,81.5303192
			c-0.6967468,35.909317-26.3587341,67.5890579-61.3868713,75.7821732
			c-35.6934204,8.3487396-72.7746277-8.7174835-89.1019897-41.2584305
			c-1.7615967-3.5108795-3.6668701-4.6692657-7.5501099-4.6535187
			c-38.4857941,0.1562805-76.9727478,0.1541595-115.4586182,0.0020447
			c-3.8704987-0.0153046-5.7733917,1.1273346-7.5550842,4.6472626
			c-15.6025085,30.8249435-49.2871094,47.7480087-83.7187195,42.3541031
			C33.7022018,153.3748474,6.5066519,126.2542191,1.0854827,93.085289
			C-6.9338293,44.0198479,30.4709969,0.1704232,80.5587463,0.0721833
			c45.1506348-0.0885544,90.3015747-0.0186806,135.4523926-0.0186806
			C216.0111389,0.0629937,216.0111389,0.0724885,216.0111389,0.0819794z M79.967926,29.8578091
			c-27.2353363-0.1713257-50.0433846,22.4304104-50.2184296,49.764183
			c-0.1740532,27.1788864,22.4709473,50.0193481,49.7830276,50.2127838
			c27.1844711,0.1925049,50.0361404-22.4541855,50.2247543-49.7742996
			C129.9448395,52.8930016,107.2696228,30.0295544,79.967926,29.8578091z M401.74823,80.23452
			c0.0569458-27.4875832-22.4511414-50.3452911-49.6041565-50.3747177
			c-27.7533875-0.0300674-50.2536316,22.3337765-50.3903198,50.0848618
			c-0.133667,27.1395569,22.6069336,49.7811356,50.0963135,49.878212
			C378.7493286,129.9178619,401.6925354,107.1171036,401.74823,80.23452z"/>
		<path id="XMLID_66_" class="st1" d="M143.9481201,263.8968201c0,23.4804688,0.0201263,46.9609375-0.0148163,70.4413452
			c-0.0082397,5.5333252-2.4477539,8.8571167-6.7804413,9.5943909c-5.4274445,0.9236145-9.5881195-3.0010986-9.598877-9.2467346
			c-0.0384369-22.3146057-0.0201569-44.6292725-0.0184326-66.9439392
			c0.0019226-24.8126068-0.0097351-49.6252594,0.0285645-74.4378204c0.0086975-5.6385193,2.3837891-8.8668365,6.7732086-9.5621796
			c5.5609131-0.8809052,9.5945282,2.8998413,9.6054535,9.2142944c0.0406494,23.4803009,0.0197601,46.9607086,0.0219727,70.4410706
			c0.0000153,0.1665344,0,0.3330383,0,0.4995728C143.9592133,263.8968201,143.9536591,263.8968201,143.9481201,263.8968201z"/>
		<path id="XMLID_65_" class="st1" d="M223.9618683,263.8179321c0.0025635,21.9816284,0.0029602,43.9632874,0.001709,65.9449158
			c-0.0001221,1.6652527,0.0186768,3.3313293-0.0243225,4.995636c-0.1490479,5.7648621-3.2485352,9.2495117-8.2020721,9.2549744
			c-4.9491119,0.0054626-8.1673584-3.5377502-8.1829681-9.2485046c-0.0414124-15.1538696-0.006546-30.3079834-0.0074768-45.4619751
			c-0.0019226-31.3071899-0.0075531-62.6143646-0.0106964-93.9215546c-0.0000763-0.8326111-0.0030365-1.6656036,0.0190582-2.4977875
			c0.1551514-5.8408966,3.149704-9.2007294,8.1991882-9.2081299c5.033432-0.0073853,8.1766663,3.4201965,8.1884155,9.2015839
			c0.0409851,20.1498108,0.0163269,40.2997437,0.0166016,60.449646
			C223.9593658,256.823822,223.9593048,260.3208618,223.9618683,263.8179321z"/>
		<path id="XMLID_64_" class="st1" d="M303.9538879,263.837738c-0.0053406,23.4813232-0.0419922,46.9627991,0.0283508,70.4439087
			c0.0126953,4.2382202-1.2195129,7.5721741-5.3468018,9.2152405c-5.7209167,2.2775269-11.0547791-1.9129639-11.079071-8.7557983
			c-0.0550537-15.4874878-0.0210876-30.9752808-0.0196533-46.4629517c0.0029297-31.64151,0.0420837-63.2830963-0.0240784-94.9244843
			c-0.0098572-4.7178497,1.5310059-8.2396545,6.2838745-9.4965057c5.6066895-1.4826202,10.1300659,2.5820312,10.1449585,9.0369568
			c0.0464478,20.150589,0.0174866,40.3013153,0.0177612,60.4520111
			C303.959259,256.8433228,303.9592285,260.3405457,303.9538879,263.837738z"/>
		<path id="XMLID_61_" class="st1" d="M79.967926,29.8578091c27.3016968,0.1717453,49.9769135,23.0351925,49.7893524,50.2026672
			c-0.1886139,27.3201141-23.0402832,49.9668045-50.2247543,49.7742996
			c-27.3120804-0.1934357-49.9570808-23.0338974-49.7830276-50.2127838
			C29.9245415,52.2882195,52.7325897,29.6864834,79.967926,29.8578091z M111.5202026,80.0616837
			c0.1360931-17.3133812-14.3371429-31.9192238-31.685936-31.976284
			c-17.1513901-0.0564117-31.55867,14.1000595-31.8543549,31.2998085
			c-0.2971191,17.2827225,14.0566406,32.0092697,31.4256363,32.2418442
			C96.6732788,111.8582382,111.3839264,97.3992081,111.5202026,80.0616837z"/>
		<path id="XMLID_58_" class="st1" d="M401.74823,80.23452c-0.0556946,26.8825836-22.9989014,49.683342-49.8981628,49.588356
			c-27.4893799-0.0970764-50.2299805-22.7386551-50.0963135-49.878212
			c0.1366882-27.7510872,22.6369324-50.1149292,50.3903198-50.0848618
			C379.2970886,29.8892269,401.8051758,52.7469368,401.74823,80.23452z M351.7449646,48.0581551
			c-17.3338623-0.0053177-31.8734131,14.588768-31.7937317,31.9130287
			c0.078949,17.1636353,14.4498291,31.5925598,31.537384,31.6647644
			c17.6195679,0.0744629,32.1799622-14.543808,32.0415344-32.1689148
			C383.395813,62.3637276,368.9241943,48.0634193,351.7449646,48.0581551z"/>
		<path id="XMLID_57_" class="st0" d="M111.5202026,80.0616837c-0.1362762,17.3375244-14.8469238,31.7965546-32.1146545,31.5653687
			c-17.3689957-0.2325745-31.7227554-14.9591217-31.4256363-32.2418442
			c0.2956848-17.199749,14.7029648-31.3562202,31.8543549-31.2998085
			C97.1830597,48.1424599,111.6562958,62.7483025,111.5202026,80.0616837z"/>
		<path id="XMLID_56_" class="st0" d="M351.7449646,48.0581551c17.1792297,0.0052643,31.6508484,14.3055725,31.7851868,31.4088783
			c0.1384277,17.6251068-14.4219666,32.2433777-32.0415344,32.1689148
			c-17.0875549-0.0722046-31.4584351-14.5011292-31.537384-31.6647644
			C319.8715515,62.6469231,334.4111023,48.0528374,351.7449646,48.0581551z"/>
	</g>
</g>
</svg>
