<?xml version="1.0" encoding="utf-8"?>
<!-- Generator: Adobe Illustrator 19.0.0, SVG Export Plug-In . SVG Version: 6.00 Build 0)  -->
<svg version="1.1" id="Layer_1" xmlns="http://www.w3.org/2000/svg" xmlns:xlink="http://www.w3.org/1999/xlink" x="0px" y="0px"
	 viewBox="51 157 512 480" style="enable-background:new 51 157 512 480;" xml:space="preserve">
<style type="text/css">
	.st0{fill:#5B5B5B;}
</style>
<g id="MvILht.tif">
	<g id="XMLID_1_">
		<path id="XMLID_54_" class="st0" d="M51,246c0.6-1.5,1.4-2.9,1.9-4.4c4.6-12.3,16.4-20.6,29.7-20.6c32.3,0,64.6,0,97,0
			c17.4,0,31.4,14.1,31.4,31.5c0,117.6,0,235.3,0,352.9c0,13.5-8.3,25.2-21.1,29.8c-1.4,0.5-2.6,1.2-3.9,1.8c-36.7,0-73.3,0-110,0
			c-5.8-3.6-12.2-6.5-17-11.1c-3.7-3.5-5.4-9.2-8-13.9C51,490,51,368,51,246z M178.8,253.3c-32.1,0-63.8,0-95.4,0
			c0,10.7,0,21.1,0,31.4c32,0,63.6,0,95.4,0C178.8,274.2,178.8,264,178.8,253.3z M83.2,348.6c32.1,0,63.8,0,95.4,0
			c0-10.7,0-21.1,0-31.4c-32,0-63.6,0-95.4,0C83.2,327.8,83.2,338.1,83.2,348.6z M83.2,524.6c-0.2,8.7,6.7,16,15.4,16.2
			s16-6.7,16.2-15.4c0.2-8.7-6.7-16-15.4-16.2C90.7,509,83.4,515.9,83.2,524.6z"/>
		<path id="XMLID_51_" class="st0" d="M563,484c-0.7,1.5-1.4,2.9-1.9,4.4c-4.6,12.2-16.3,20.6-29.2,20.6c-94.8,0-189.7,0-284.5,0
			c-1.3,0-2.6,0-4.1,0c0-21.4,0-42.3,0-63.8c95.7,0,191.4,0,287.4,0c0-85.6,0-170.6,0-256.2c-138.5,0-276.9,0-415.3,0
			c-1.1-12.4,2.9-20.1,5.8-23.3c3.7-4.1,14.5-8.7,18.8-8.7c97.5,0,276.6,0.5,398,0c6.5,0,14.2,4.7,18.8,9.1
			c3.9,3.8,6.2,10.2,6.2,15.9C563.1,289.1,563,383.3,563,484z M354.8,476.9c-0.1-8.7-7.3-15.8-16-15.7c-8.7,0.1-15.8,7.2-15.7,16
			c0.1,8.7,7.3,15.8,16,15.7C347.8,492.8,354.9,485.6,354.8,476.9z"/>
		<path id="XMLID_48_" class="st0" d="M259.2,604.7c-0.6-16.9,12.3-30,31.8-32c0-5.2,0-10.5,0-15.8c0-5.1,0-10.2,0-15.6
			c32,0,63.6,0,95.8,0c0,10.3,0,20.7,0,31.4c10.7,0.6,19.4,4.5,25.8,12.7c4.4,5.7,6.6,12.5,6.2,19.3
			C365.7,604.7,312.6,604.7,259.2,604.7z"/>
	</g>
</g>
</svg>
