<?xml version="1.0" encoding="utf-8"?>
<!-- Generator: Adobe Illustrator 19.0.0, SVG Export Plug-In . SVG Version: 6.00 Build 0)  -->
<svg version="1.1" id="Layer_1" xmlns="http://www.w3.org/2000/svg" xmlns:xlink="http://www.w3.org/1999/xlink" x="0px" y="0px"
	 viewBox="0 0 317.3 312.7" style="enable-background:new 0 0 317.3 312.7;" xml:space="preserve">
<style type="text/css">
	.st0{display:none;fill:#5B5B5B;}
	.st1{fill:#5B5B5B;}
</style>
<g id="HriJ2Y.tif">
	<g id="XMLID_1_">
		<path id="XMLID_25_" class="st0" d="M4.2,0c104.2,0,208.5,0,313,0c0,104,0,208.2,0,312.7c-104.1,0-208.6,0-313,0
			c0-6.8,0-14,0-21.3c3.3,1.5,6.5,3.1,9.8,4.5c32.3,14.2,70-0.4,83.7-32.4c8.1-19.1-0.1-39.7-18.5-46.7c-17.1-6.5-33,3.3-39.5,24.3
			c-1.4,4.6-1.7,9.8-4.4,13.7 M300.9,7.5c-4.8,2.3-13.2,5.2-20.5,10c-55.9,36.3-102.9,83.1-149.7,129.9c-7,7-6.1,14.3,0.5,21.1
			c7,7.2,14.1,14.3,21.3,21.3c9.7,9.3,14.6,9.5,24.4-0.1c12.3-12.1,24.9-24,36.2-37.1c29.3-34.1,58.1-68.5,86.5-103.3
			c6.2-7.6,10.3-17.2,13.8-26.5C317.1,13.4,313.1,7.7,300.9,7.5z M153,206.2c-1.9-3-3.1-5.5-5-7.5c-4.6-5-9.5-9.7-14.4-14.4
			c-17.2-17-14.7-20.9-31.8,1.8c-19.2,25.5-19.5,25.7,5.3,45.6c2.8,2.3,9.8,2.5,13.1,0.6c8.9-5.2,17-11.9,25.2-18.2
			C148.2,211.9,150.3,209,153,206.2z"/>
		<path id="XMLID_2_" class="st1" d="M31.1,252.2c1.3-4.1,3-9.1,4.4-13.7c6.5-21,22.3-30.8,39.5-24.3c18.4,7,26.6,27.6,18.5,46.7
			c-13.6,32-51.4,46.6-83.7,32.4c-3.3-1.5-9.8-4.5-9.8-4.5S20.8,283.9,31.1,252.2z"/>
		<path id="XMLID_23_" class="st1" d="M300.9,7.5c11.8-2.6,17.4,9,13.8,18.3c-3.6,9.3-8.9,15.8-15.1,23.4
			c-28.3,34.8-57.2,69.3-86.5,103.3c-11.2,13.1-23.8,25-36.2,37.1c-9.8,9.6-14.7,9.5-24.4,0.1c-7.2-7-14.3-14.1-21.3-21.3
			c-6.7-6.8-7.6-14-0.5-21.1c46.8-46.9,93.7-93.6,149.7-129.9C287.7,12.8,295.7,8.7,300.9,7.5z"/>
		<path id="XMLID_22_" class="st1" d="M153,206.2c-2.7,2.9-4.8,5.8-7.5,7.9c-8.2,6.4-16.3,13.1-25.2,18.2
			c-3.3,1.9-10.3,1.7-13.1-0.6c-24.8-20-24.5-20.1-5.3-45.6c17-22.7,14.5-18.8,31.8-1.8c4.8,4.8,9.7,9.5,14.4,14.4
			C149.9,200.6,151.1,203.2,153,206.2z"/>
	</g>
</g>
</svg>
