<?xml version="1.0" encoding="utf-8"?>
<!-- Generator: Adobe Illustrator 19.0.0, SVG Export Plug-In . SVG Version: 6.00 Build 0)  -->
<svg version="1.1" id="Layer_1" xmlns="http://www.w3.org/2000/svg" xmlns:xlink="http://www.w3.org/1999/xlink" x="0px" y="0px"
	 viewBox="0 0 282.7 600.9" style="enable-background:new 0 0 282.7 600.9;" xml:space="preserve">
<style type="text/css">
	.st0{fill:#5B5B5B;}
</style>
<g id="FH4hve.tif">
	<g id="XMLID_2_">
		<path id="XMLID_17_" class="st0" d="M21.7,0c2.7,0,5.5,0,8.2,0c0.5,0.2,1.1,0.5,1.6,0.6c12.5,3.2,20,12.9,20.1,25.9
			c0,1.3,0,2.7,0,4c60.1,0,119.7,0,179.6,0c0-1.7,0-3.2,0-4.6c0.1-12.2,7.7-22,19.5-25.1c0.7-0.2,1.5-0.5,2.2-0.7c2.7,0,5.5,0,8.2,0
			c0.6,0.2,1.2,0.5,1.9,0.7c11.7,3.2,19.3,12.7,19.5,24.8c0.1,9,0.1,18-0.2,27c-0.4,12.8-2.9,25.2-7.2,37.3
			c-11.3,31.2-31.8,55.3-58,75c-1.7,1.2-2.6,0.3-3.9-0.4c-14.9-9.6-30.6-17.3-47.3-23.2c-1.6-0.6-3.2-1.2-5.5-2
			c10.1-5.1,19.3-10.4,27.4-17.6c-1,0-2,0-3.1,0c-21.8,0-43.6,0-65.4,0c-1.5,0-3.2-0.3-4.4-1c-11.5-6.9-21.9-15.1-30.7-25.3
			c-1.4-1.6-2.7-3.4-4.6-5.7c2.1,0,3.3,0,4.6,0c43.4,0,86.8,0,130.3,0.1c3.2,0,5.1-0.8,6.3-3.8c2.5-6.5,5.3-13,7.9-19.5
			c0.4-0.9,0.4-2,0.7-3.1c-58.8,0-117.2,0-175.9,0c0.4,1.5,0.6,2.7,0.9,3.9c3.3,11.9,8.9,22.5,16.6,32.1
			c18.4,23.1,42.5,38,70.2,47.6c9.9,3.4,20,6.1,29.7,10.1c35.7,14.6,66.2,36.4,87.9,68.7c25.3,37.6,31.1,78.2,15.2,121
			c-11.1,29.9-31.5,52.8-56.7,71.8c-1.6,1.2-2.6,0.6-3.9-0.2c-15.8-10.2-32.5-18.3-50.3-24.3c-0.7-0.2-1.3-0.5-2.5-1
			c10-5,19.2-10.4,27.6-16.9c-0.1-0.2-0.2-0.4-0.3-0.7c-1.1,0-2.1,0-3.2,0c-21.8,0-43.6,0-65.4,0c-1.3,0-2.8-0.1-3.9-0.7
			c-13.1-7.8-24.8-17.4-34.3-29.5c-0.3-0.4-0.4-1-0.8-1.8c1.6,0,2.9,0,4.1,0c43.7,0,87.4,0,131.1,0.1c2.4,0,3.9-0.7,4.8-2.9
			c2.8-6.8,5.6-13.5,8.4-20.3c0.4-1,0.5-2.2,0.7-3.3c-58.8,0-117.3,0-175.7,0c0,0.5-0.1,0.8,0,1.1c0.2,1,0.4,1.9,0.7,2.8
			c4.9,17.7,14.9,32.2,28,44.7c19.4,18.5,42.4,30.4,68,37.9c33.5,9.8,63.2,26.6,88,51.3c20.4,20.2,34.8,43.8,41.2,72.1
			c3.8,16.8,3.4,33.8,2.7,50.8c-0.6,14-12.6,24.1-26.8,23.6c-13.2-0.4-24-11.8-24.3-25.4c0-1.7,0-3.4,0-5.1c-60.1,0-119.7,0-179.6,0
			c0,1.7,0,3.1,0,4.6c-0.1,14.4-11.2,25.9-25.2,26c-14.4,0.1-25.9-11-26.1-25.7c-0.1-7.9-0.1-15.8,0-23.8
			c0.2-13.6,2.6-26.8,7.1-39.7c11.1-31.5,31.8-55.7,58.2-75.6c1.6-1.2,2.6-0.6,3.9,0.3c15.8,10.2,32.5,18.3,50.3,24.3
			c0.7,0.2,1.3,0.6,2.3,1.1c-9.9,5-19,10.2-27,17.5c1,0,2.1,0,3.1,0c21.7,0,43.4,0,65.1,0c1.6,0,3.4,0.3,4.7,1.1
			c10.1,6,19.2,13.1,27.3,21.6c2.6,2.7,4.9,5.7,7.4,8.5c-0.1,0.3-0.3,0.5-0.4,0.8c-1.1,0-2.2,0-3.4,0c-15.1,0-30.1,0-45.2,0
			c-28.8,0-57.7,0-86.5-0.1c-2.3,0-3.6,0.6-4.6,2.7c-1.9,4.3-4.2,8.4-5.9,12.7c-1.4,3.5-2.3,7.2-3.5,11.1c59,0,117.4,0,175.8,0
			c0.1-0.4,0.2-0.6,0.2-0.7c-0.1-0.6-0.2-1.2-0.4-1.7c-3.6-14.2-10.7-26.6-20.3-37.6c-19.6-22.4-44.4-36.7-72.6-45.5
			c-9.1-2.8-18.3-5.8-27.1-9.5c-34.3-14.7-63.6-36-84.7-67.3C-0.5,339.1-6.7,299.7,7.6,257.8c10.8-31.5,31.8-55.5,58.1-75.3
			c1.5-1.1,2.4-0.5,3.6,0.2c11.4,6.1,22.8,12.4,34.4,18.2c5.7,2.8,11.9,4.7,18.4,7.3c-9.9,5-19.1,10.3-27.3,17.6c1,0,2.1,0,3.1,0
			c21.8,0,43.6,0,65.4,0c1.4,0,3,0.1,4.2,0.8c12.9,7.7,24.5,17.1,33.9,29c0.4,0.5,0.7,1.1,1.3,2.1c-1.7,0-3,0-4.2,0
			c-43.7,0-87.4,0-131.1-0.1c-2.5,0-4,0.7-5,3c-1.9,4.3-4.1,8.4-5.9,12.8c-1.4,3.4-2.2,7-3.4,10.8c59,0,117.4,0,176.3,0
			c-0.4-1.5-0.6-2.8-1-4.1c-4.9-17.6-14.8-32-27.8-44.5c-19.4-18.6-42.5-30.6-68.2-38.1c-33.5-9.8-63.1-26.6-88-51.3
			C24,126.2,9.5,102.6,3.2,74.3c-3.8-17.1-3.5-34.4-2.6-51.7C1.2,12.4,7.5,5.4,17,1.6C18.5,1,20.1,0.5,21.7,0z"/>
	</g>
</g>
</svg>
