<?xml version="1.0" encoding="utf-8"?>
<!-- Generator: Adobe Illustrator 19.0.0, SVG Export Plug-In . SVG Version: 6.00 Build 0)  -->
<svg version="1.1" id="Layer_1" xmlns="http://www.w3.org/2000/svg" xmlns:xlink="http://www.w3.org/1999/xlink" x="0px" y="0px"
	 viewBox="0 0 626 497.5" style="enable-background:new 0 0 626 497.5;" xml:space="preserve">
<style type="text/css">
	.st0{fill:#5B5B5B;}
</style>
<g id="oe9CNA.tif">
	<g id="XMLID_1_">
		<path id="XMLID_73_" class="st0" d="M0,437.6c1-4.2,1.4-8.6,3.1-12.5c4.2-9.7,8.5-19.5,13.7-28.7c22.9-40.6,45.9-81.1,69.3-121.4
			c19.8-34.1,40.3-67.8,60.5-101.7c2.5-4.1,3.7-8.2,3.7-13.1c-0.2-24.2-0.1-48.3-0.1-72.5c0-1.8,0-3.6,0-5.7
			c-3.1-0.5-5.9-0.8-8.6-1.4c-7.1-1.6-11.3-6.8-11.3-13.8c0-6.8,4.5-12.8,11.4-13.7c6.4-0.9,13-0.5,19.4-0.7c1.9-0.1,3.9,0,6.5,0
			c-4.6-18-9-34.9-13.5-52.3c37.3,0,74,0,111.4,0c-4.5,17.4-8.9,34.4-13.5,52.3c2.9,0,4.8,0,6.8,0c6,0.1,12-0.2,18,0.3
			c8.1,0.7,13.7,6.6,14,13.8c0.3,7.1-5.2,13.2-13,14.7c-7.2,1.3-7.2,1.3-7.2,8.7c0,24-0.1,48,0.1,72c0,3.1,1,6.6,2.6,9.3
			c26.4,45.1,53.3,89.9,79.6,135.1c20.8,35.8,41.4,71.8,61.1,108.2c9.7,17.8,10.9,49.2-4.9,67.2c-8.5,9.7-19.4,14.4-32,15.5
			c-4,0.4-8,0.5-12,0.5c-103.5,0-207,0.1-310.5-0.2c-9,0-18.4-1.4-26.8-4.4C13.1,487.5,5,475.4,1.5,460.2c-0.4-1.6-1-3.1-1.5-4.7
			C0,449.6,0,443.6,0,437.6z M348.6,361.2c-9.3-16.3-17.9-31.6-26.7-46.9c-12.3-21.4-24.5-42.7-36.9-64
			c-13.7-23.4-27.5-46.7-41.2-70.2c-1.7-2.9-3.6-3.7-6.8-3.7c-17.7,0.1-35.3,0.2-53,0c-3.5,0-5.5,1.3-7,4.2
			c-2.6,4.9-5.5,9.5-8.2,14.3c-14.2,24.3-28.5,48.5-42.6,72.8c-15.5,26.6-30.9,53.3-46.3,79.9c-2.4,4.2-4.8,8.5-7.6,13.5
			C164.7,361.2,256,361.2,348.6,361.2z"/>
		<path id="XMLID_70_" class="st0" d="M626,190.6c-6.1,14.1-19.6,12.9-26.7,4.1c-1-1.3-2.4-2.3-4-3.8
			C534.9,251.4,474.7,311.7,414,372.5c-4.7-7.7-8.8-14.3-12.7-21c-18-30.3-36-60.7-54-91c-8.1-13.6-16-27.3-24.3-40.7
			c-2.2-3.6-1.6-5.8,1.2-8.5c17.2-17,34.2-34,51.3-51.1c24.9-24.9,49.8-49.9,74.8-74.9c6.5-6.5,13.1-12.8,20-19.5
			c-2.3-2.5-4.2-4.5-6.1-6.6c-5.7-6.2-6.2-14.6-1.2-19.9c5.8-6.1,13.6-6.3,20.4-0.1c6.4,5.8,12.3,12.1,18.5,18.3
			c38.9,38.9,77.7,77.7,116.5,116.7c3,3,5.1,6.9,7.7,10.3C626,186.6,626,188.6,626,190.6z M490.3,86.9c-45.7,46-91.6,92.2-138.1,139
			c1.7,0.3,2,0.4,2.4,0.4c53.5,0,107,0,160.4-0.1c2,0,4.4-1.4,5.9-2.8c8.6-8.3,16.9-17,25.5-25.3c9.4-9.1,19-18.1,28.2-26.9
			C545.9,142.5,518.2,114.8,490.3,86.9z"/>
		<path id="XMLID_59_" class="st0" d="M265.8,317.7c0.1,12.8-10.3,23.4-22.9,23.4c-12.5,0-22.9-10.4-23-22.9
			c-0.1-12.9,9.9-23,23-23.3C255.2,294.6,265.7,305,265.8,317.7z"/>
		<path id="XMLID_58_" class="st0" d="M176.3,327.6c-12.3-0.2-22.2-10.2-22.2-22.4c0-12.3,10.5-22.4,22.9-22.3
			c12.4,0.2,22,10,21.9,22.5C198.9,318.2,189.1,327.8,176.3,327.6z"/>
		<path id="XMLID_57_" class="st0" d="M240.1,265.8c-0.1,9.1-7.5,16.3-16.7,16.1c-9.1-0.1-16-7.1-16-16.3c0-9,7.5-16.7,16.4-16.6
			C232.6,249.1,240.2,256.9,240.1,265.8z"/>
		<path id="XMLID_56_" class="st0" d="M454.5,177.5c12,0,21.9,9.9,22.1,21.9c0.2,12.1-10,22.2-22.3,22.2
			c-12.1-0.1-21.7-9.8-21.6-22.1C432.7,187.3,442.4,177.5,454.5,177.5z"/>
		<path id="XMLID_55_" class="st0" d="M491.4,133.4c7.9,0,14.6,6.7,14.5,14.6c-0.1,8.1-6.7,14.5-14.7,14.3
			c-8-0.2-14.2-6.5-14.3-14.3C476.9,140,483.3,133.4,491.4,133.4z"/>
		<path id="XMLID_54_" class="st0" d="M514.2,188.6c-0.2,6-5.1,10.6-11.1,10.3c-5.8-0.3-10.2-5.2-10-11c0.2-6,5.2-10.6,11.1-10.4
			C509.9,177.9,514.4,182.9,514.2,188.6z"/>
	</g>
</g>
</svg>
