<?xml version="1.0" encoding="utf-8"?>
<!-- Generator: Adobe Illustrator 19.0.0, SVG Export Plug-In . SVG Version: 6.00 Build 0)  -->
<svg version="1.1" id="Layer_1" xmlns="http://www.w3.org/2000/svg" xmlns:xlink="http://www.w3.org/1999/xlink" x="0px" y="0px"
	 viewBox="0 0 472.4531555 509.8097534" style="enable-background:new 0 0 472.4531555 509.8097534;" xml:space="preserve">
<style type="text/css">
	.st0{fill:#555555;}
	.st1{display:none;fill:#555555;}
</style>
<g id="yt6OSy.tif">
	<g id="XMLID_1_">
		<path id="XMLID_25_" class="st0" d="M290.4025574,509.8097534c-2,0-4,0-6,0
			c-2.673645-0.8344727-5.3526611-1.6520081-8.0201111-2.5058594
			c-76.5105438-24.4914551-152.9870148-49.0903015-229.5560608-73.3974915
			c-16.2215538-5.1496277-28.3788109-15.1568298-35.8740959-29.861969
			c-14.2080956-27.8752136-15.3334942-56.1409302,1.0068369-83.8617249
			c1.4474964-2.4555969,0.7883997-3.9320068-0.1956367-6.2452393c-3.3664732-7.9136658-7.4400144-15.8164978-8.9829845-24.1424561
			c-1.9223628-10.3731995-2.0646007-21.1585999-2.1519713-31.7727661
			c-0.1938405-23.5484467,7.1539545-44.3475647,23.2402687-61.9951782
			c22.7870255-24.9986115,45.2609024-50.2826538,67.8681717-75.4451065
			C125.3694916,83.1481323,159.0722961,45.776989,192.572464,8.2250872
			c6.461441-7.2429309,13.6309509-9.6266689,23.1519623-7.4498043
			C293.07724,18.4610691,370.4784241,35.9354324,447.8658142,53.4701576
			c2.5959778,0.5882149,5.2107849,1.0949211,7.8014526,1.7048302c17.1610718,4.0401573,21.9913025,18.4685898,10.6248779,31.8964844
			c-58.7778931,69.4381714-117.6212463,138.8210297-176.3066101,208.3372498
			c-6.6774292,7.9098206-14.2167358,9.9346619-23.9695435,6.9642639
			c-53.1430359-16.1857605-106.3437958-32.1820984-159.5260925-48.2389679
			c-13.2159271-3.9901581-26.4085083-8.061264-39.6639633-11.9158325
			c-12.3451538-3.5898743-23.0779953,1.8033905-25.9807701,13.3417664
			c-2.9639511,11.7815094-1.8950691,23.4698944,2.4929352,34.7966461c1.8431969,4.7578735,5.1762238,7.8092346,10.2571106,9.3587646
			c73.5003815,22.4159241,146.9905548,44.8663025,220.3969727,67.5869141
			c5.0613708,1.5665894,7.5420227,0.5931091,10.7009888-3.3262329
			c47.3625183-58.7630615,94.8615417-117.4162445,142.4579163-175.9901123
			c2.776062-3.4163208,3.6358337-6.591568,3.0757751-10.8773956c-1.6335449-12.5016479,0.4825134-24.6757507,5.4219055-36.1219025
			c5.7801514-13.3945618,24.303833-14.8987274,32.9063416-3.1254883c4.5887451,6.2800751,3.9324341,12.9311676,2.520874,20.032547
			c-1.1499634,5.7852783-3.1860962,12.562561-1.2766418,17.5359955c3.5831909,9.3328247,1.8776855,17.2521057-1.0525208,26.0161133
			c-8.3741455,25.0467682-9.6628113,50.3518066,0.6513062,75.1874695
			c4.3528748,10.4814148,3.0161743,18.994812-4.1171265,27.6504822
			C412.4058228,368.443634,359.677063,432.7243652,307.0115967,497.0566101
			C302.3983154,502.6918335,297.5463867,507.6465759,290.4025574,509.8097534z M423.2026367,254.8473358
			c-1.7935791,2.1832733-3.3736877,4.0828705-4.9285278,6.0028839
			c-37.7398376,46.6044922-75.4708862,93.216095-113.2193604,139.8135681
			c-8.3101807,10.2582397-15.0172424,12.2532959-27.6330566,8.3831482
			c-75.2000732-23.0690308-150.4157715-46.0875549-225.5672607-69.3137512
			c-4.5846443-1.4169617-6.6653938-0.2192078-8.4300232,3.7415466c-6.440136,14.4549561-5.131443,28.5756836,1.9819756,42.2800293
			c2.7375298,5.2739563,7.0942879,9.0372925,13.0486984,10.934845
			c72.725975,23.1767578,145.4325562,46.4145203,218.1078796,69.7494812
			c3.1069336,0.9976196,4.8145447,0.3282166,6.7409363-2.0841064c7.1719666-8.9809875,14.5295105-17.8138733,21.8219604-26.6985779
			c40.7953796-49.7025146,81.6033325-99.3947144,122.334259-149.1499939
			c1.2223816-1.4932556,2.6044617-3.8346863,2.2799988-5.4534912
			C427.8929749,273.8375244,425.54953,264.7215576,423.2026367,254.8473358z M308.9855347,131.0190887
			c8.8581543,0.1122742,14.2554016-1.6703339,18.3633118-6.3852386c4.1564026-4.7705383,8.2668762-9.5873108,12.2277832-14.5200806
			c3.5798645-4.4582214,2.5869446-8.2839813-2.6746216-10.7685242c-1.6361694-0.7726059-3.4175415-1.294426-5.1820984-1.7297516
			c-16.9493103-4.1816254-33.9076538-8.326767-50.8665771-12.4693985
			c-23.4198608-5.720871-46.8479462-11.4081345-70.2613678-17.1552048
			c-10.5233307-2.5830612-19.4067993-0.5669632-26.0618286,8.6254349c-2.2402039,3.0943298-4.8952484,5.8890457-7.3708496,8.812088
			c-6.588089,7.7788239-5.3280334,11.8429031,4.5696869,14.7148209c0.7988892,0.2317963,1.5928345,0.4850311,2.4004059,0.6818008
			c32.468277,7.9114532,64.9337311,15.8345718,97.4097443,23.7141266
			C291.5407715,126.9658203,301.5717468,129.2716522,308.9855347,131.0190887z"/>
		<path id="XMLID_24_" class="st1" d="M290.4025574,509.8097534c7.1438293-2.1631775,11.9957581-7.1179199,16.6090393-12.7531433
			c52.6654663-64.3322449,105.3942261-128.6129761,158.2694092-192.7728577
			c7.1333008-8.6556702,8.4700012-17.1690674,4.1171265-27.6504822
			c-10.3141174-24.8356628-9.0254517-50.1407013-0.6513062-75.1874695
			c2.9302063-8.7640076,4.6357117-16.6832886,1.0525208-26.0161133c-1.9094543-4.9734344,0.1266785-11.7507172,1.2766418-17.5359955
			c1.4115601-7.1013794,2.0678711-13.7524719-2.520874-20.032547c-8.6025085-11.7732391-27.1261902-10.2690735-32.9063416,3.1254883
			c-4.9393921,11.4461517-7.0554504,23.6202545-5.4219055,36.1219025c0.5600586,4.2858276-0.2997131,7.4610748-3.0757751,10.8773956
			c-47.5963745,58.5738678-95.0953979,117.2270508-142.4579163,175.9901123
			c-3.1589661,3.919342-5.6396179,4.8928223-10.7009888,3.3262329
			c-73.4064178-22.7206116-146.8966064-45.17099-220.3969727-67.5869141
			c-5.0808868-1.54953-8.4139137-4.6008911-10.2571106-9.3587646c-4.3880043-11.3267517-5.4568863-23.0151367-2.4929352-34.7966461
			c2.9027748-11.5383759,13.6356163-16.9316406,25.9807701-13.3417664
			c13.255455,3.8545685,26.4480362,7.9256744,39.6639633,11.9158325
			c53.1822968,16.0568695,106.3830566,32.0532074,159.5260925,48.2389679
			c9.7528076,2.9703979,17.2921143,0.9455566,23.9695435-6.9642639
			c58.6853638-69.5162201,117.528717-138.8990784,176.3066101-208.3372498
			c11.3664246-13.4278946,6.5361938-27.8563271-10.6248779-31.8964844
			c-2.5906677-0.6099091-5.2054749-1.1166153-7.8014526-1.7048302
			C370.4784241,35.9354324,293.07724,18.4610691,215.7244263,0.7752827
			c-9.5210114-2.1768641-16.6905212,0.2068734-23.1519623,7.4498043
			C159.0722961,45.776989,125.3694916,83.1481323,91.736969,120.5819626
			c-22.6072693,25.1624527-45.0811462,50.4464951-67.8681717,75.4451065
			C7.7824831,213.6746826,0.434688,234.4738007,0.6285285,258.0222473
			c0.0873706,10.6141663,0.2296085,21.3995667,2.1519713,31.7727661c1.5429707,8.3259583,5.6165118,16.2287903,8.9829845,24.1424561
			c0.9840364,2.3132324,1.6431332,3.7896423,0.1956367,6.2452393c-16.340332,27.7207947-15.2149324,55.9865112-1.0068369,83.8617249
			c7.495286,14.7051392,19.6525421,24.7123413,35.8740959,29.861969
			c76.569046,24.3071899,153.045517,48.9060364,229.5560608,73.3974915c2.66745,0.8538513,5.3464661,1.6713867,8.0201111,2.5058594
			c-94.9758301,0-189.9516907,0-284.9637451,0c0-170.2658691,0-340.5317078,0-510.8987732
			c157.8560791,0,315.7484131,0,473.8022766,0c0,170.2320099,0,340.5653687,0,510.8987732
			C412.3712158,509.8097534,351.3869019,509.8097534,290.4025574,509.8097534z"/>
		<path id="XMLID_23_" class="st1" d="M423.2026367,254.8473358c2.3468933,9.8742218,4.6903381,18.9901886,6.5374756,28.2055817
			c0.3244629,1.6188049-1.0576172,3.9602356-2.2799988,5.4534912
			c-40.7309265,49.7552795-81.5388794,99.4474792-122.334259,149.1499939
			c-7.29245,8.8847046-14.6499939,17.7175903-21.8219604,26.6985779c-1.9263916,2.412323-3.6340027,3.0817261-6.7409363,2.0841064
			c-72.6753082-23.3349609-145.381897-46.5727234-218.1078796-69.7494812
			c-5.9544106-1.8975525-10.3111687-5.6608887-13.0486984-10.934845
			c-7.1134186-13.7043457-8.4221115-27.8250732-1.9819756-42.2800293c1.7646294-3.9607544,3.8453789-5.1585083,8.4300232-3.7415466
			c75.1514893,23.2261963,150.3671875,46.2447205,225.5672607,69.3137512
			c12.6158142,3.8701477,19.322876,1.8750916,27.6330566-8.3831482
			c37.7484741-46.5974731,75.4795227-93.2090759,113.2193604-139.8135681
			C419.828949,258.9302063,421.4090576,257.0306091,423.2026367,254.8473358z"/>
		<path id="XMLID_22_" class="st1" d="M308.9855347,131.0190887c-7.4137878-1.7474365-17.4447632-4.0532684-27.4464111-6.4799271
			c-32.4760132-7.8795547-64.9414673-15.8026733-97.4097443-23.7141266
			c-0.8075714-0.1967697-1.6015167-0.4500046-2.4004059-0.6818008c-9.8977203-2.8719177-11.1577759-6.935997-4.5696869-14.7148209
			c2.4756012-2.9230423,5.1306458-5.7177582,7.3708496-8.812088c6.6550293-9.1923981,15.5384979-11.2084961,26.0618286-8.6254349
			c23.4134216,5.7470703,46.841507,11.4343338,70.2613678,17.1552048
			c16.9589233,4.1426315,33.9172668,8.2877731,50.8665771,12.4693985c1.7645569,0.4353256,3.545929,0.9571457,5.1820984,1.7297516
			c5.2615662,2.4845428,6.2544861,6.3103027,2.6746216,10.7685242c-3.960907,4.9327698-8.0713806,9.7495422-12.2277832,14.5200806
			C323.2409363,129.3487549,317.843689,131.1313629,308.9855347,131.0190887z"/>
	</g>
</g>
</svg>
