<?xml version="1.0" encoding="utf-8"?>
<!-- Generator: Adobe Illustrator 19.0.0, SVG Export Plug-In . SVG Version: 6.00 Build 0)  -->
<svg version="1.1" id="Layer_1" xmlns="http://www.w3.org/2000/svg" xmlns:xlink="http://www.w3.org/1999/xlink" x="0px" y="0px"
	 viewBox="0 0 512 512" style="enable-background:new 0 0 512 512;" xml:space="preserve">
<style type="text/css">
	.st0{fill:#5B5B5B;}
	.st1{display:none;fill:#5B5B5B;}
</style>
<g id="CPJem6.tif">
	<g id="XMLID_1_">
		<path id="XMLID_84_" class="st0" d="M214,512c-62.6666718,0-125.3333359,0-188,0
			c-4.2733765-2.0555725-8.8030434-3.7118225-12.7641296-6.2539978C6.0754147,501.1504822,2.6548581,493.7663269,0.0000005,486
			c0-62.6666565,0-125.3333435-0.0000005-188c0.6563066-1.6625977,1.3452682-3.3131104,1.9637036-4.9896851
			c4.5086794-12.2228394,16.1676979-20.9425354,28.965868-20.964325
			c59.3203583-0.1009521,118.6412277-0.1439514,177.9613342,0.0117798
			c16.8370209,0.0441895,30.9900665,14.2190857,31.0344849,31.033844
			c0.1562347,59.1534729,0.134903,118.3076477,0.0348358,177.4613342
			c-0.0227966,13.4783936-8.7547302,25.1135864-21.4622803,29.6179504C216.973999,510.7111206,215.4981537,511.3870239,214,512z
			 M119.4793472,407.9880066c18.4730911,0,36.9462357,0.026062,55.4192734-0.0105286
			c9.8169861-0.0194702,16.9809418-6.6603699,17.0898438-15.714325c0.1123352-9.3373108-7.0332794-16.2365112-17.0596008-16.2466125
			c-36.4468536-0.0367432-72.8938217-0.0349121-109.340683,0.0090332
			c-10.557827,0.0127258-17.6658325,6.6633911-17.5643005,16.2033997
			c0.0984306,9.2485657,7.2664032,15.7410583,17.5343323,15.7614746
			C83.5318527,408.0261841,101.5056305,408.0004272,119.4793472,407.9880066z M104.0245132,335.7424622
			c-0.1394653,8.7046814,6.7961502,15.9890747,15.4682465,16.2460632
			c8.8626328,0.2626648,16.3693008-6.9005432,16.4991074-15.7442017
			c0.1276855-8.6979675-6.8488922-15.9989319-15.4978104-16.2183838
			C111.5093002,319.7979431,104.1677246,326.8038635,104.0245132,335.7424622z M120.0677032,432.0079041
			c-8.7228012-0.0391541-15.8981934,6.9552307-16.0598679,15.6547241
			c-0.1656876,8.9147949,6.9787521,16.2459106,15.9094467,16.3250732
			c8.6525879,0.0767212,15.9362793-7.0229187,16.0713348-15.6652832
			C136.1282501,439.3866882,128.9664459,432.0478516,120.0677032,432.0079041z"/>
		<path id="XMLID_81_" class="st0" d="M26,0.0000011c62.6666641,0,125.3333282,0,188-0.0000011
			c1.186615,0.4950149,2.3479767,1.06519,3.5637054,1.473518c13.5350647,4.546052,22.372757,16.2583141,22.3930817,30.476305
			c0.0840454,58.8121033,0.1218567,117.6245956-0.0238342,176.4364624
			c-0.0432892,17.4802856-14.0669403,31.5042725-31.5474701,31.5465851
			c-58.9784393,0.1427917-117.9575729,0.1150208-176.9361572,0.0036774
			c-13.522438-0.0255127-25.0755577-8.6953583-29.6132717-21.4412842C1.293762,216.9720306,0.6153278,215.4972382,0,214
			c0.0000005-62.6666718,0.0000005-125.3333359,0.0000002-188c1.9621215-4.1374073,3.5631874-8.4990425,5.9636173-12.3642473
			C10.5666656,6.2238641,18.1011734,2.7613974,26,0.0000011z M135.9967499,104.0279541
			c0-12.4397812,0.0206604-24.3851471-0.0056915-36.3304062c-0.0274811-12.4546127-6.0625916-19.7792473-16.1603012-19.6849785
			c-9.8581696,0.0920334-15.8282852,7.449501-15.8304672,19.5110817
			c-0.0019531,10.8275986,0.0092773,21.6552277-0.0197296,32.4827499c-0.0033798,1.2627945-0.2258987,2.5250015-0.3668671,3.9967117
			c-13.3245621,0-26.3040314-0.086113-39.2817154,0.0289459c-9.3332787,0.0827484-16.3366127,7.0793381-16.3193245,15.9929886
			c0.0173416,8.9426651,6.9737396,15.7545547,16.3810463,15.9378433c4.8291245,0.0940857,9.6613007,0.0356598,14.4921036,0.0378571
			c8.2648163,0.0037842,16.5296402,0.0010529,25.1130905,0.0010529c0,2.4309998-0.0014572,4.2360229,0.0002441,6.0410614
			c0.0108643,11.4939117-0.1266403,22.9905396,0.0837173,34.4808044c0.1520004,8.3027954,6.7011566,14.8864746,14.8114166,15.435379
			c7.907608,0.5351868,15.1379089-4.8894043,16.7418823-12.7688446c0.4259796-2.0926361,0.3442993-4.3058319,0.3495483-6.464035
			c0.0294495-12.10466,0.0141754-24.2094269,0.0141754-36.724762c2.1803741,0,3.8084564,0.0001068,5.4365387-0.0000153
			c11.1607666-0.0008087,22.3249969,0.1510315,33.480011-0.1025391c3.0488586-0.0693054,6.3504486-0.8098145,9.0475616-2.1940613
			c6.2669067-3.2163391,9.2891235-10.7992401,7.5718689-17.4605484
			c-1.8406372-7.1398926-7.7663727-12.0919647-15.2056427-12.1747131
			C163.0512085,103.9218063,149.7693939,104.0279541,135.9967499,104.0279541z"/>
		<path id="XMLID_77_" class="st0" d="M512,298c0,62.6666565,0,125.3333435,0,188
			c-1.9667358,4.1334839-3.565918,8.4971313-5.9789124,12.3512268C501.4020081,505.7292175,493.9319763,509.2877808,486,512
			c-62.6666565,0-125.3333435,0-188,0c-1.3419495-0.5580444-2.6577759-1.1924744-4.0299377-1.6624146
			c-13.2409363-4.5346069-21.9268494-16.277832-21.9413757-30.2714233
			c-0.0610046-58.6567383-0.078186-117.3136597,0.0096436-175.9703064
			c0.0269775-18.0271301,14.0302124-32.0305481,32.0571899-32.0575256
			c58.6566467-0.0878296,117.3135681-0.0706177,175.9703064-0.0096436
			c13.9953308,0.0145569,25.7309265,8.6947937,30.271637,21.9417114C510.8077393,295.3423767,511.4418945,296.6581726,512,298z
			 M392.026947,375.9884338c18.3066406,0,36.6133728,0.0279541,54.9199219-0.0112305
			c9.7919617-0.0209656,16.9586487-6.7067871,17.0415039-15.7622986
			c0.0853882-9.3363647-7.0572205-16.1895142-17.1077271-16.1991272
			c-36.4468384-0.0349121-72.8937988-0.0345764-109.3406067,0.0105896
			c-10.532959,0.013031-17.6428833,6.7054138-17.5162048,16.2507629c0.1226196,9.2416382,7.2901611,15.694519,17.5825195,15.7138062
			C355.74646,376.0249634,373.8867493,376.0004883,392.026947,375.9884338z M391.9692078,407.9988403
			c-18.1394653,0-36.2789612-0.0220947-54.418396,0.0085449c-10.421875,0.0176086-17.6903076,6.8023376-17.5459595,16.2766113
			c0.1403809,9.2090149,7.401825,15.710083,17.603241,15.7124023c36.1123047,0.0082092,72.2246399,0.0080566,108.3369446-0.0124817
			c1.8212891-0.0010376,3.6941528,0.0109253,5.4547729-0.3803406c8.0631409-1.7918701,13.4255676-9.3236694,12.520874-17.378479
			c-0.9060974-8.0667725-7.5253296-14.1240234-16.0357971-14.1804504
			C429.2470703,407.9210205,410.6078491,408.0063782,391.9692078,407.9988403z"/>
		<path id="XMLID_74_" class="st0" d="M512,26.0000038c0,62.6666603,0,125.3333282,0,188
			c-0.434082,1.0319977-0.9456787,2.0387726-1.2904663,3.0997925c-4.5438843,13.984375-16.4544678,22.8809357-31.1565552,22.892746
			c-58.4873352,0.0469513-116.9748535,0.0578308-175.4621582-0.0273743
			c-17.9630432-0.0261688-32.0595703-14.1478882-32.0784607-32.0736084
			c-0.0617676-58.6539612-0.0419006-117.308075,0.0065002-175.9620819
			c0.0113525-13.7246075,8.5488281-25.5211773,21.468811-30.1124763C295.0142517,1.2745241,296.4969482,0.6086682,298,0.0000031
			c62.6666565-0.000002,125.3333435-0.000002,188-0.000002c7.3005981,2.7460766,14.6818237,5.5823598,19.1307678,12.4544239
			C507.8667908,16.6806755,509.7395935,21.4658127,512,26.0000038z M369.3892822,119.7201157
			c-1.5650635,1.6674271-2.6517029,2.8886795-3.804718,4.0436783
			c-10.8264465,10.8451385-21.7192993,21.6246185-32.4785156,32.5359497
			c-6.6707153,6.7650452-6.8149719,16.4270782-0.5765991,22.8307495c6.4111633,6.5810699,16.2037659,6.5276184,23.1971741-0.2872314
			c6.4413452-6.2768555,12.7592773-12.6810455,19.094696-19.0657959
			c5.6032104-5.6468658,11.1554871-11.344223,16.8961792-17.1881714c1.6703491,1.5657959,2.8952026,2.652771,4.052002,3.8078613
			c10.8436279,10.8276367,21.6181335,21.725235,32.5320435,32.4814453
			c6.7906494,6.6925507,16.4080811,6.8244476,22.8387146,0.5629578c6.5718994-6.3990173,6.4844666-16.1943665-0.3046265-23.2011871
			c-4.1719666-4.3058472-8.453064-8.5067902-12.7176208-12.7219696
			c-7.7885132-7.6983185-15.6011047-15.3722687-23.5511475-23.2016296c1.2521973-1.3744583,1.98526-2.2460022,2.7869568-3.0490189
			c11.2976379-11.3162766,22.6946106-22.535202,33.8751221-33.9658661
			c6.5641174-6.7109833,6.332428-16.5638733-0.1504517-22.8245201c-6.300293-6.0842934-15.8241882-5.9796333-22.483429,0.3218689
			c-2.7816162,2.6322365-5.4356689,5.3994331-8.144104,8.1088829c-9.3905029,9.3940582-18.7794189,18.7896957-29.1712341,29.1876144
			c-1.8117981-2.3442917-3.1479187-4.4921494-4.8816223-6.2472382
			c-10.1836548-10.3090363-20.4091187-20.5780487-30.7232971-30.7563629
			c-6.7418213-6.6530457-16.42453-6.7980499-22.8327026-0.5511513c-6.5568542,6.3918419-6.4612427,16.2443886,0.2933044,23.1950111
			c3.5980835,3.7025375,7.2862244,7.3179932,10.9538269,10.9524689
			C352.4606628,102.9841919,360.8444214,111.2674637,369.3892822,119.7201157z"/>
		<path id="XMLID_73_" class="st1" d="M298,0.0000031c-1.5030518,0.6086651-2.9857483,1.274521-4.5123291,1.8170007
			c-12.9199829,4.5912981-21.4574585,16.3878689-21.468811,30.1124763
			c-0.0484009,58.6539993-0.0682678,117.3081131-0.0065002,175.9620819
			c0.0188904,17.9257202,14.1154175,32.0474396,32.0784607,32.0736084
			c58.4873047,0.0852051,116.974823,0.0743256,175.4621582,0.0273743
			c14.7020874-0.0118103,26.6126709-8.908371,31.1565552-22.892746C511.0543213,216.0387726,511.565918,215.0319977,512,214
			c0,28,0,56,0,84c-0.5581055-1.3418274-1.1922607-2.6576233-1.6625366-4.0296021
			c-4.5407104-13.2469177-16.2763062-21.9271545-30.271637-21.9417114
			c-58.6567383-0.0609741-117.3136597-0.078186-175.9703064,0.0096436
			c-18.0269775,0.0269775-32.0302124,14.0303955-32.0571899,32.0575256
			c-0.0878296,58.6566467-0.0706482,117.3135681-0.0096436,175.9703064
			c0.0145264,13.9935913,8.7004395,25.7368164,21.9413757,30.2714233C295.3422241,510.8075256,296.6580505,511.4419556,298,512
			c-28,0-56,0-84,0c1.4981537-0.6129761,2.973999-1.2888794,4.4979401-1.8291016
			c12.70755-4.504364,21.4394836-16.1395569,21.4622803-29.6179504
			c0.1000671-59.1536865,0.1213989-118.3078613-0.0348358-177.4613342
			c-0.0444183-16.8147583-14.197464-30.9896545-31.0344849-31.033844
			c-59.3200989-0.1557312-118.6409683-0.1127319-177.9613342-0.0117798
			c-12.7981701,0.0217896-24.4571877,8.7414856-28.965868,20.964325C1.3452682,294.6868896,0.6563067,296.3374023,0.0000001,298
			C0.0000005,270,0.0000005,242,0,214c0.6153278,1.4972382,1.293762,2.9720306,1.8360584,4.4952698
			c4.537714,12.7459259,16.0908337,21.4157715,29.6132717,21.4412842
			c58.9785805,0.1113434,117.9577179,0.1391144,176.9361572-0.0036774
			c17.4805298-0.0423126,31.5041809-14.0662994,31.5474701-31.5465851
			c0.1456909-58.8118744,0.1078796-117.6243668,0.0238342-176.4364624
			c-0.0203247-14.2179909-8.858017-25.930254-22.3930817-30.476305C216.3479767,1.06519,215.186615,0.4950149,214,0
			C242,0.0000011,270,0.0000011,298,0.0000031z"/>
		<path id="XMLID_72_" class="st1" d="M26,0.0000011C18.1011734,2.7613974,10.5666656,6.2238641,5.9636173,13.6357546
			c-2.4004297,3.8652048-4.0014954,8.22684-5.9636173,12.3642473c0.0000004-8.666666,0.0000004-17.333334,0.0000004-26
			C8.6666679,0.0000011,17.333334,0.0000011,26,0.0000011z"/>
		<path id="XMLID_71_" class="st1" d="M486,512c7.9319763-2.7122192,15.4020081-6.2707825,20.0210876-13.6487732
			C508.434082,494.4971313,510.0332642,490.1334839,512,486c0,8.6666565,0,17.3333435,0,26C503.3333435,512,494.6666565,512,486,512
			z"/>
		<path id="XMLID_70_" class="st1" d="M512,26.0000038c-2.2604065-4.5341911-4.1332092-9.3193283-6.8692322-13.545579
			C500.6818237,5.5823607,493.3005981,2.7460775,486,0.0000011c8.6666565,0,17.3333435,0,26,0
			C512,8.6666679,512,17.3333359,512,26.0000038z"/>
		<path id="XMLID_69_" class="st1" d="M0.0000005,486c2.6548576,7.7663269,6.0754142,15.1504822,13.2358656,19.7460022
			c3.9610863,2.5421753,8.4907532,4.1984253,12.7641296,6.2539978c-8.6666622,0-17.3333282,0-25.9999962,0
			C0.0000005,503.3333435,0.0000005,494.6666565,0.0000005,486z"/>
		<path id="XMLID_68_" class="st1" d="M119.4793472,407.9942017c-17.9737167,0.0062256-35.9474945,0.0319824-53.9211349-0.0037537
			c-10.2679291-0.0204163-17.4359016-6.5129089-17.5343323-15.7614746
			c-0.101532-9.5400085,7.0064735-16.1906738,17.5643005-16.2033997
			c36.4468613-0.0439453,72.8938293-0.0457764,109.340683-0.0090332
			c10.0263214,0.0101013,17.171936,6.9093018,17.0596008,16.2466125c-0.108902,9.0539551-7.2728577,15.6948547-17.0898438,15.714325
			C156.4255829,408.0140686,137.9524384,407.9880066,119.4793472,407.9942017z"/>
		<path id="XMLID_67_" class="st1" d="M104.0245132,335.7424622c0.1432114-8.9385986,7.484787-15.944519,16.4695435-15.7165222
			c8.6489182,0.2194519,15.6254959,7.5204163,15.4978104,16.2183838
			c-0.1298065,8.8436584-7.6364746,16.0068665-16.4991074,15.7442017
			C110.8206635,351.7315369,103.8850479,344.4471436,104.0245132,335.7424622z"/>
		<path id="XMLID_66_" class="st1" d="M120.0677032,432.0079041c8.8987427,0.0399475,16.0605469,7.3787842,15.9209137,16.3145142
			c-0.1350555,8.6423645-7.4187469,15.7420044-16.0713348,15.6652832
			c-8.9306946-0.0791626-16.0751343-7.4102783-15.9094467-16.3250732
			C104.1695099,438.9631348,111.344902,431.96875,120.0677032,432.0079041z"/>
		<path id="XMLID_65_" class="st1" d="M135.9967499,104.0279541c13.772644,0,27.0544586-0.1061478,40.3334656,0.0415726
			c7.43927,0.0827484,13.3650055,5.0348206,15.2056427,12.1747131c1.7172546,6.6613083-1.3049622,14.2442093-7.5718689,17.4605484
			c-2.697113,1.3842468-5.998703,2.1247559-9.0475616,2.1940613c-11.155014,0.2535706-22.3192444,0.1017303-33.480011,0.1025391
			c-1.6280823,0.0001221-3.2561646,0.0000153-5.4365387,0.0000153c0,12.5153351,0.015274,24.6201019-0.0141754,36.724762
			c-0.005249,2.1582031,0.0764313,4.3713989-0.3495483,6.464035c-1.6039734,7.8794403-8.8342743,13.3040314-16.7418823,12.7688446
			c-8.11026-0.5489044-14.6594162-7.1325836-14.8114166-15.435379c-0.2103577-11.4902649-0.0728531-22.9868927-0.0837173-34.4808044
			c-0.0017014-1.8050385-0.0002441-3.6100616-0.0002441-6.0410614c-8.5834503,0-16.8482742,0.0027313-25.1130905-0.0010529
			c-4.8308029-0.0021973-9.6629791,0.0562286-14.4921036-0.0378571
			c-9.4073067-0.1832886-16.3637047-6.9951782-16.3810463-15.9378433
			c-0.0172882-8.9136505,6.9860458-15.9102402,16.3193245-15.9929886
			c12.977684-0.1150589,25.9571533-0.0289459,39.2817154-0.0289459c0.1409683-1.4717102,0.3634872-2.7339172,0.3668671-3.9967117
			c0.029007-10.8275223,0.0177765-21.6551514,0.0197296-32.4827499c0.002182-12.0615807,5.9722977-19.4190483,15.8304672-19.5110817
			c10.0977097-0.0942688,16.1328201,7.2303658,16.1603012,19.6849785
			C136.0174103,79.642807,135.9967499,91.5881729,135.9967499,104.0279541z"/>
		<path id="XMLID_64_" class="st1" d="M392.026947,375.9944458c-18.1401978,0.0060425-36.2804871,0.0305176-54.4205933-0.0035095
			c-10.2923584-0.0192871-17.4598999-6.472168-17.5825195-15.7138062
			c-0.1266785-9.5453491,6.9832458-16.2377319,17.5162048-16.2507629
			c36.4468079-0.045166,72.8937683-0.0455017,109.3406067-0.0105896
			c10.0505066,0.009613,17.1931152,6.8627625,17.1077271,16.1991272
			c-0.0828552,9.0555115-7.2495422,15.741333-17.0415039,15.7622986
			C428.6403198,376.0163879,410.3335876,375.9884338,392.026947,375.9944458z"/>
		<path id="XMLID_63_" class="st1" d="M391.9692078,408.0026245c18.6386414,0.0037537,37.2778625-0.081604,55.9156799,0.0420227
			c8.5104675,0.056427,15.1296997,6.113678,16.0357971,14.1804504c0.9046936,8.0548096-4.4577332,15.5866089-12.520874,17.378479
			c-1.7606201,0.3912659-3.6334839,0.379303-5.4547729,0.3803406c-36.1123047,0.0205383-72.2246399,0.0206909-108.3369446,0.0124817
			c-10.201416-0.0023193-17.4628601-6.5033875-17.603241-15.7124023
			c-0.1443481-9.4742737,7.1240845-16.2590027,17.5459595-16.2766113
			C355.6902466,407.9767456,373.8297424,407.9988403,391.9692078,408.0026245z"/>
		<path id="XMLID_62_" class="st1" d="M369.3892822,119.7201157c-8.5448608-8.452652-16.9286194-16.7359238-25.3000488-25.0316544
			c-3.6676025-3.6344757-7.3557434-7.2499313-10.9538269-10.9524689
			c-6.7545471-6.9506226-6.8501587-16.8031693-0.2933044-23.1950111c6.4081726-6.2468987,16.0908813-6.1018944,22.8327026,0.5511513
			c10.3141785,10.1783142,20.5396423,20.4473267,30.7232971,30.7563629
			c1.7337036,1.7550888,3.0698242,3.9029465,4.8816223,6.2472382
			c10.3918152-10.3979187,19.7807312-19.7935562,29.1712341-29.1876144c2.7084351-2.7094498,5.3624878-5.4766464,8.144104-8.1088829
			c6.6592407-6.3015022,16.183136-6.4061623,22.483429-0.3218689c6.4828796,6.2606468,6.7145691,16.1135368,0.1504517,22.8245201
			c-11.1805115,11.4306641-22.5774841,22.6495895-33.8751221,33.9658661
			c-0.8016968,0.8030167-1.5347595,1.6745605-2.7869568,3.0490189c7.9500427,7.829361,15.7626343,15.5033112,23.5511475,23.2016296
			c4.2645569,4.2151794,8.5456543,8.4161224,12.7176208,12.7219696c6.789093,7.0068207,6.8765259,16.8021698,0.3046265,23.2011871
			c-6.4306335,6.2614899-16.0480652,6.1295929-22.8387146-0.5629578
			c-10.9139099-10.7562103-21.6884155-21.6538086-32.5320435-32.4814453
			c-1.1567993-1.1550903-2.3816528-2.2420654-4.052002-3.8078613c-5.7406921,5.8439484-11.2929688,11.5413055-16.8961792,17.1881714
			c-6.3354187,6.3847504-12.6533508,12.7889404-19.094696,19.0657959
			c-6.9934082,6.8148499-16.7860107,6.8683014-23.1971741,0.2872314
			c-6.2383728-6.4036713-6.0941162-16.0657043,0.5765991-22.8307495
			c10.7592163-10.9113312,21.6520691-21.6908112,32.4785156-32.5359497
			C366.7375793,122.6087952,367.8242188,121.3875427,369.3892822,119.7201157z"/>
	</g>
</g>
</svg>
