<?xml version="1.0" encoding="utf-8"?>
<!-- Generator: Adobe Illustrator 19.0.0, SVG Export Plug-In . SVG Version: 6.00 Build 0)  -->
<svg version="1.1" id="Layer_1" xmlns="http://www.w3.org/2000/svg" xmlns:xlink="http://www.w3.org/1999/xlink" x="0px" y="0px"
	 viewBox="0 0 402.9200439 491.471405" style="enable-background:new 0 0 402.9200439 491.471405;" xml:space="preserve">
<style type="text/css">
	.st0{fill:#5B5B5B;}
</style>
<g id="yLfthR.tif">
	<g id="XMLID_1_">
		<path id="XMLID_16_" class="st0" d="M381.7526855,330.4131775c0-65.9494629,0-131.5787659,0-197.8980865
			c-1.6672668,0.3550568-3.0525208,0.5530243-4.3797913,0.9466095
			c-72.8851318,21.6128998-145.7549133,43.277771-218.676712,64.7661285
			c-3.7019196,1.0908966-4.4372406,2.7898865-4.4333954,6.2607117c0.0860901,77.4950104-0.2677765,154.992569,0.3016205,232.4834747
			c0.1415405,19.2631531-8.3228149,31.9941101-23.9485474,41.1083679
			c-19.0351562,11.1029663-39.8655548,14.4888611-61.591507,13.0945435
			c-18.2422256-1.1707764-35.5633163-5.6073303-50.5980453-16.4789124
			c-11.5977526-8.3862305-19.853653-18.9497986-18.2200813-34.395752
			c1.3118668-12.4041138,8.8362846-21.0039062,18.5769691-27.7303162
			c20.0917873-13.8743896,42.8087082-17.6149292,66.6424637-16.2030334
			c16.8256073,0.9967651,32.7304535,5.3960266,47.8613892,14.7676086c0-110.8373413,0-220.8795776,0-331.1726685
			C223.0733337,53.3105965,312.4689636,26.7752686,402.6729431,0c0,3.0091095-0.0000305,5.131609-0.0000305,7.2541103
			c0,75.6605453,0.0000305,151.321106,0.0000305,226.9816589c0,40.8299408-0.5447693,81.6702423,0.2355957,122.4852448
			c0.3762512,19.6781616-8.4819641,32.6310425-24.5341797,41.805603
			c-19.1220703,10.9291687-39.9917297,14.2114258-61.6948242,12.707489
			c-18.04776-1.2506409-35.1433411-5.7950439-50.081665-16.5186462
			c-9.3538818-6.7146912-16.6272888-15.1460876-18.1149292-27.0098267
			c-1.6728516-13.3407898,4.5858765-23.5602722,14.3862-31.7885132c14.4388733-12.1228638,31.694519-17.3237,50.0729675-19.1111755
			c23.7837524-2.3132324,46.4932861,1.2114868,67.3680725,13.5900269
			C380.5430603,330.5340576,380.9295349,330.4131775,381.7526855,330.4131775z"/>
	</g>
</g>
</svg>
